<?xml version="1.0" encoding="utf-8"?>
<!-- Generator: Adobe Illustrator 24.3.0, SVG Export Plug-In . SVG Version: 6.00 Build 0)  -->
<svg version="1.1" id="Layer_1" xmlns="http://www.w3.org/2000/svg" xmlns:xlink="http://www.w3.org/1999/xlink" x="0px" y="0px"
	 viewBox="0 0 787.8 749.9" style="enable-background:new 0 0 787.8 749.9;" xml:space="preserve">
<style type="text/css">
	.st0{fill:#00A19A;}
</style>
<g>
	<path class="st0" d="M748.7,478.3l-225.8-99.8L419.5,134.6L83.5,0l183.9,439.6l-3.9,9.3l0.1,0L204,594.7L0,683.5l168.1,66.4
		l409-173.8l21.9-9.3l36-15.3l152.9,72.2L748.7,478.3z M691.5,490.3l-105.6,44.9l-46.4-112.1L691.5,490.3z M406.8,191.8l5.9,13.9
		l0,0l132.8,320.8l-237.3-96.2L406.8,191.8z M146.3,61.8l238,95.3l-98.5,238.1L146.3,61.8z M186,639.7l-27.7,69.7L88.9,682
		L186,639.7z M198.8,699.8l34.1-85.8l62.3-152.3L532.4,558l-71.1,30.3l0,0L198.8,699.8z M676.9,533.6l46.1-19.6l12.8,47.5
		L676.9,533.6z"/>
</g>
</svg>
